<mxfile host="app.diagrams.net" modified="2024-05-31T23:03:33.412Z" agent="Mozilla/5.0 (Windows NT 10.0; Win64; x64) AppleWebKit/537.36 (KHTML, like Gecko) Chrome/122.0.0.0 YaBrowser/24.4.0.0 Safari/537.36" version="24.4.10" etag="dRqt3WiLGfAJdf20Xauc" type="github">
  <diagram name="Page-1" id="IpqgnGzeHza3cSsObtvw">
    <mxGraphModel>
      <root>
        <mxCell id="0" />
        <mxCell id="1" parent="0" />
      </root>
    </mxGraphModel>
  </diagram>
</mxfile>
